<svg width="49" height="45" viewBox="0 0 49 45" fill="none" xmlns="http://www.w3.org/2000/svg">
    <path d="M26.352 44.893C24.7877 45.0357 23.2122 45.0357 21.6478 44.893L22.1111 40.4135C23.3673 40.5285 24.6326 40.5285 25.8888 40.4135L26.352 44.893ZM17.03 44.0358L18.4221 39.7295C17.2207 39.3877 16.0582 38.9356 14.9516 38.3796L12.6835 42.3461C14.0587 43.0368 15.5132 43.6061 17.03 44.0335V44.0358ZM8.77369 39.8915L11.8218 36.4155C10.8484 35.6663 9.95533 34.8299 9.15531 33.9181L5.44715 36.7709C6.44319 37.9094 7.55924 38.9556 8.77369 39.8915ZM2.82864 33.1081L7.06002 30.9843C6.46667 29.9462 5.9843 28.8557 5.61996 27.7287L1.02616 29.0336C1.48228 30.4434 2.08605 31.8098 2.82864 33.1081ZM0.11172 24.7049L4.89033 24.2706C4.76799 23.093 4.76799 21.907 4.89033 20.7293L0.114121 20.2951C-0.0380402 21.7616 -0.0380402 23.2384 0.114121 24.7049H0.11172ZM1.02616 15.9663L5.61996 17.2713C5.98717 16.1351 6.47199 15.0461 7.06002 14.018L2.82864 11.8918C2.08684 13.1911 1.48148 14.5559 1.02616 15.9663ZM5.44715 8.22678L9.15531 11.0841C9.95443 10.1716 10.8467 9.33443 11.8194 8.58451L8.77609 5.10845C7.56164 6.04215 6.44559 7.08834 5.44715 8.22678ZM12.6835 2.65384L14.9516 6.62037C16.0581 6.06429 17.2206 5.61212 18.4221 5.27044L17.03 0.96418C15.5261 1.39187 14.0686 1.95783 12.6835 2.65384ZM21.6478 0.106978C23.2122 -0.0356592 24.7877 -0.0356592 26.352 0.106978L25.8888 4.58648C24.6325 4.4718 23.3673 4.4718 22.1111 4.58648L21.6478 0.109228V0.106978ZM30.9698 0.96418L29.5778 5.27044C30.7898 5.61467 31.9515 6.06915 33.0507 6.62037L35.3164 2.65384C33.9304 1.95845 32.4745 1.39098 30.9698 0.96418ZM39.2262 5.10845L36.1781 8.58451C37.1525 9.33372 38.0453 10.1707 38.8446 11.0819L42.5527 8.22678C41.5548 7.08831 40.4407 6.04391 39.2262 5.10845ZM45.1712 11.8918L40.9399 14.018C41.5279 15.0461 42.0127 16.1351 42.3799 17.2713L46.9737 15.9663C46.5175 14.5566 45.9137 13.1903 45.1712 11.8918ZM47.8882 20.2951L43.1096 20.7293C43.2322 21.907 43.2322 23.093 43.1096 24.2706L47.8858 24.7071C48.0381 23.2399 48.0405 21.7623 47.8882 20.2951ZM46.9737 29.0336L42.3799 27.7287C42.0155 28.8557 41.5331 29.9462 40.9399 30.9843L45.1712 33.1081C45.9081 31.819 46.5153 30.4555 46.9713 29.0336H46.9737ZM42.5527 36.7732L38.8446 33.9158C38.0454 34.8283 37.1532 35.6655 36.1805 36.4155L39.2262 39.8915C40.4406 38.9578 41.5543 37.9116 42.5527 36.7732ZM35.3164 42.3461L33.0507 38.3796C31.9433 38.9357 30.78 39.3879 29.5778 39.7295L30.9698 44.0358C32.4738 43.6081 33.9313 43.0422 35.3164 42.3461Z" fill="black"/>
    <path fill-rule="evenodd" clip-rule="evenodd" d="M16.7996 22.4999C16.7996 20.7098 17.5582 18.993 18.9085 17.7272C20.2589 16.4614 22.0903 15.7502 23.9999 15.7502C25.9096 15.7502 27.741 16.4614 29.0913 17.7272C30.4416 18.993 31.2002 20.7098 31.2002 22.4999C31.2002 24.29 30.4416 26.0068 29.0913 27.2726C27.741 28.5384 25.9096 29.2495 23.9999 29.2495C22.0903 29.2495 20.2589 28.5384 18.9085 27.2726C17.5582 26.0068 16.7996 24.29 16.7996 22.4999ZM23.9999 24.7497C23.3634 24.7497 22.7529 24.5127 22.3028 24.0908C21.8527 23.6688 21.5998 23.0966 21.5998 22.4999C21.5998 21.9032 21.8527 21.3309 22.3028 20.909C22.7529 20.487 23.3634 20.25 23.9999 20.25C24.6365 20.25 25.247 20.487 25.6971 20.909C26.1472 21.3309 26.4 21.9032 26.4 22.4999C26.4 23.0966 26.1472 23.6688 25.6971 24.0908C25.247 24.5127 24.6365 24.7497 23.9999 24.7497Z" fill="black"/>
    <path fill-rule="evenodd" clip-rule="evenodd" d="M23.9999 9.00073C20.1806 9.00073 16.5178 10.423 13.8171 12.9546C11.1165 15.4862 9.5993 18.9198 9.5993 22.5C9.5993 26.0802 11.1165 29.5138 13.8171 32.0454C16.5178 34.577 20.1806 35.9992 23.9999 35.9992C27.8192 35.9992 31.4821 34.577 34.1827 32.0454C36.8833 29.5138 38.4005 26.0802 38.4005 22.5C38.4005 18.9198 36.8833 15.4862 34.1827 12.9546C31.4821 10.423 27.8192 9.00073 23.9999 9.00073ZM14.3995 22.5C14.3995 24.8868 15.411 27.1759 17.2114 28.8636C19.0118 30.5513 21.4537 31.4995 23.9999 31.4995C26.5461 31.4995 28.988 30.5513 30.7884 28.8636C32.5889 27.1759 33.6003 24.8868 33.6003 22.5C33.6003 20.1132 32.5889 17.8241 30.7884 16.1364C28.988 14.4486 26.5461 13.5005 23.9999 13.5005C21.4537 13.5005 19.0118 14.4486 17.2114 16.1364C15.411 17.8241 14.3995 20.1132 14.3995 22.5Z" fill="black"/>
</svg>